<svg xmlns="http://www.w3.org/2000/svg" version="1.1" xmlns:xlink="http://www.w3.org/1999/xlink" xmlns:svgjs="http://svgjs.dev/svgjs" viewBox="0 0 800 800"><defs><linearGradient x1="50%" y1="0%" x2="50%" y2="100%" id="cccoil-grad"><stop stop-color="hsl(206, 75%, 49%)" stop-opacity="1" offset="0%"></stop><stop stop-color="hsl(331, 90%, 56%)" stop-opacity="1" offset="100%"></stop></linearGradient></defs><g stroke="url(#cccoil-grad)" fill="none" stroke-linecap="round"><circle r="390" cx="400" cy="400" stroke-width="8" stroke-dasharray="2450 2450" transform="rotate(360, 400, 400)" opacity="0.05"></circle><circle r="377" cx="400" cy="400" stroke-width="8" stroke-dasharray="2287 2369" transform="rotate(348, 400, 400)" opacity="0.08"></circle><circle r="364" cx="400" cy="400" stroke-width="8" stroke-dasharray="2129 2287" transform="rotate(335, 400, 400)" opacity="0.12"></circle><circle r="351" cx="400" cy="400" stroke-width="8" stroke-dasharray="1977 2205" transform="rotate(323, 400, 400)" opacity="0.15"></circle><circle r="338" cx="400" cy="400" stroke-width="8" stroke-dasharray="1831 2124" transform="rotate(310, 400, 400)" opacity="0.18"></circle><circle r="325" cx="400" cy="400" stroke-width="8" stroke-dasharray="1690 2042" transform="rotate(298, 400, 400)" opacity="0.21"></circle><circle r="312" cx="400" cy="400" stroke-width="8" stroke-dasharray="1555 1960" transform="rotate(286, 400, 400)" opacity="0.25"></circle><circle r="299" cx="400" cy="400" stroke-width="8" stroke-dasharray="1425 1879" transform="rotate(273, 400, 400)" opacity="0.28"></circle><circle r="286" cx="400" cy="400" stroke-width="8" stroke-dasharray="1301 1797" transform="rotate(261, 400, 400)" opacity="0.31"></circle><circle r="273" cx="400" cy="400" stroke-width="8" stroke-dasharray="1183 1715" transform="rotate(248, 400, 400)" opacity="0.34"></circle><circle r="260" cx="400" cy="400" stroke-width="8" stroke-dasharray="1070 1634" transform="rotate(236, 400, 400)" opacity="0.38"></circle><circle r="247" cx="400" cy="400" stroke-width="8" stroke-dasharray="963 1552" transform="rotate(223, 400, 400)" opacity="0.41"></circle><circle r="234" cx="400" cy="400" stroke-width="8" stroke-dasharray="862 1470" transform="rotate(211, 400, 400)" opacity="0.44"></circle><circle r="221" cx="400" cy="400" stroke-width="8" stroke-dasharray="766 1389" transform="rotate(199, 400, 400)" opacity="0.48"></circle><circle r="208" cx="400" cy="400" stroke-width="8" stroke-dasharray="676 1307" transform="rotate(186, 400, 400)" opacity="0.51"></circle><circle r="195" cx="400" cy="400" stroke-width="8" stroke-dasharray="591 1225" transform="rotate(174, 400, 400)" opacity="0.54"></circle><circle r="182" cx="400" cy="400" stroke-width="8" stroke-dasharray="513 1144" transform="rotate(161, 400, 400)" opacity="0.57"></circle><circle r="169" cx="400" cy="400" stroke-width="8" stroke-dasharray="439 1062" transform="rotate(149, 400, 400)" opacity="0.61"></circle><circle r="156" cx="400" cy="400" stroke-width="8" stroke-dasharray="372 980" transform="rotate(137, 400, 400)" opacity="0.64"></circle><circle r="143" cx="400" cy="400" stroke-width="8" stroke-dasharray="310 898" transform="rotate(124, 400, 400)" opacity="0.67"></circle><circle r="130" cx="400" cy="400" stroke-width="8" stroke-dasharray="253 817" transform="rotate(112, 400, 400)" opacity="0.71"></circle><circle r="117" cx="400" cy="400" stroke-width="8" stroke-dasharray="203 735" transform="rotate(99, 400, 400)" opacity="0.74"></circle><circle r="104" cx="400" cy="400" stroke-width="8" stroke-dasharray="158 653" transform="rotate(87, 400, 400)" opacity="0.77"></circle><circle r="91" cx="400" cy="400" stroke-width="8" stroke-dasharray="118 572" transform="rotate(74, 400, 400)" opacity="0.80"></circle><circle r="78" cx="400" cy="400" stroke-width="8" stroke-dasharray="84 490" transform="rotate(62, 400, 400)" opacity="0.84"></circle><circle r="65" cx="400" cy="400" stroke-width="8" stroke-dasharray="56 408" transform="rotate(50, 400, 400)" opacity="0.87"></circle><circle r="52" cx="400" cy="400" stroke-width="8" stroke-dasharray="34 327" transform="rotate(37, 400, 400)" opacity="0.90"></circle><circle r="39" cx="400" cy="400" stroke-width="8" stroke-dasharray="17 245" transform="rotate(25, 400, 400)" opacity="0.93"></circle><circle r="26" cx="400" cy="400" stroke-width="8" stroke-dasharray="6 163" transform="rotate(12, 400, 400)" opacity="0.97"></circle><circle r="13" cx="400" cy="400" stroke-width="8" stroke-dasharray="0 82" opacity="1.00"></circle></g></svg>