<svg xmlns="http://www.w3.org/2000/svg" version="1.1" xmlns:xlink="http://www.w3.org/1999/xlink" xmlns:svgjs="http://svgjs.dev/svgjs" viewBox="0 0 800 800"><defs><linearGradient x1="50%" y1="0%" x2="50%" y2="100%" id="ffflurry-grad" gradientTransform="rotate(270)"><stop stop-color="hsl(238, 82%, 13%)" stop-opacity="1" offset="0%"></stop><stop stop-color="hsl(180, 69%, 40%)" stop-opacity="1" offset="45%"></stop><stop stop-color="hsl(180, 69%, 60%)" stop-opacity="1" offset="100%"></stop></linearGradient></defs><rect width="100%" height="100%" fill="hsl(238, 82%, 13%)"></rect><g fill="url(#ffflurry-grad)"><rect width="127" height="1" x="446.5" y="257.5" rx="0.5" transform="rotate(40, 510, 258)" opacity="0.16"></rect><rect width="34" height="1" x="231" y="280.5" rx="0.5" transform="rotate(40, 248, 281)" opacity="0.52"></rect><rect width="107" height="1" x="44.5" y="244.5" rx="0.5" transform="rotate(40, 98, 245)" opacity="0.56"></rect><rect width="95" height="1" x="378.5" y="393.5" rx="0.5" transform="rotate(40, 426, 394)" opacity="0.68"></rect><rect width="125" height="1" x="204.5" y="680.5" rx="0.5" transform="rotate(40, 267, 681)" opacity="0.94"></rect><rect width="101" height="1" x="185.5" y="202.5" rx="0.5" transform="rotate(40, 236, 203)" opacity="0.49"></rect><rect width="80" height="1" x="674" y="27.5" rx="0.5" transform="rotate(40, 714, 28)" opacity="0.26"></rect><rect width="52" height="1" x="626" y="768.5" rx="0.5" transform="rotate(40, 652, 769)" opacity="0.75"></rect><rect width="69" height="1" x="69.5" y="414.5" rx="0.5" transform="rotate(40, 104, 415)" opacity="0.20"></rect><rect width="83" height="1" x="483.5" y="670.5" rx="0.5" transform="rotate(40, 525, 671)" opacity="0.88"></rect><rect width="43" height="1" x="285.5" y="287.5" rx="0.5" transform="rotate(40, 307, 288)" opacity="0.28"></rect><rect width="124" height="1" x="50" y="690.5" rx="0.5" transform="rotate(40, 112, 691)" opacity="0.41"></rect><rect width="112" height="1" x="645" y="505.5" rx="0.5" transform="rotate(40, 701, 506)" opacity="0.51"></rect><rect width="48" height="1" x="469" y="84.5" rx="0.5" transform="rotate(40, 493, 85)" opacity="0.55"></rect><rect width="54" height="1" x="524" y="321.5" rx="0.5" transform="rotate(40, 551, 322)" opacity="0.45"></rect><rect width="113" height="1" x="109.5" y="167.5" rx="0.5" transform="rotate(40, 166, 168)" opacity="0.89"></rect><rect width="83" height="1" x="377.5" y="141.5" rx="0.5" transform="rotate(40, 419, 142)" opacity="0.25"></rect><rect width="55" height="1" x="717.5" y="550.5" rx="0.5" transform="rotate(40, 745, 551)" opacity="0.32"></rect><rect width="55" height="1" x="638.5" y="68.5" rx="0.5" transform="rotate(40, 666, 69)" opacity="0.85"></rect><rect width="49" height="1" x="481.5" y="179.5" rx="0.5" transform="rotate(40, 506, 180)" opacity="0.40"></rect><rect width="64" height="1" x="186" y="710.5" rx="0.5" transform="rotate(40, 218, 711)" opacity="0.62"></rect><rect width="23" height="1" x="746.5" y="645.5" rx="0.5" transform="rotate(40, 758, 646)" opacity="0.69"></rect><rect width="68" height="1" x="369" y="341.5" rx="0.5" transform="rotate(40, 403, 342)" opacity="0.84"></rect><rect width="81" height="1" x="246.5" y="572.5" rx="0.5" transform="rotate(40, 287, 573)" opacity="0.70"></rect><rect width="103" height="1" x="443.5" y="359.5" rx="0.5" transform="rotate(40, 495, 360)" opacity="0.50"></rect><rect width="89" height="1" x="231.5" y="479.5" rx="0.5" transform="rotate(40, 276, 480)" opacity="0.46"></rect><rect width="128" height="1" x="292" y="264.5" rx="0.5" transform="rotate(40, 356, 265)" opacity="0.14"></rect><rect width="74" height="1" x="740" y="512.5" rx="0.5" transform="rotate(40, 777, 513)" opacity="0.76"></rect><rect width="84" height="1" x="453" y="427.5" rx="0.5" transform="rotate(40, 495, 428)" opacity="0.79"></rect><rect width="128" height="1" x="156" y="544.5" rx="0.5" transform="rotate(40, 220, 545)" opacity="0.73"></rect><rect width="86" height="1" x="475" y="564.5" rx="0.5" transform="rotate(40, 518, 565)" opacity="0.24"></rect><rect width="50" height="1" x="208" y="617.5" rx="0.5" transform="rotate(40, 233, 618)" opacity="0.44"></rect><rect width="62" height="1" x="44" y="359.5" rx="0.5" transform="rotate(40, 75, 360)" opacity="0.21"></rect><rect width="43" height="1" x="280.5" y="343.5" rx="0.5" transform="rotate(40, 302, 344)" opacity="0.22"></rect><rect width="60" height="1" x="239" y="33.5" rx="0.5" transform="rotate(40, 269, 34)" opacity="0.10"></rect><rect width="57" height="1" x="251.5" y="751.5" rx="0.5" transform="rotate(40, 280, 752)" opacity="0.22"></rect><rect width="112" height="1" x="288" y="32.5" rx="0.5" transform="rotate(40, 344, 33)" opacity="0.25"></rect><rect width="77" height="1" x="267.5" y="177.5" rx="0.5" transform="rotate(40, 306, 178)" opacity="0.16"></rect><rect width="28" height="1" x="632" y="387.5" rx="0.5" transform="rotate(40, 646, 388)" opacity="0.53"></rect><rect width="65" height="1" x="326.5" y="698.5" rx="0.5" transform="rotate(40, 359, 699)" opacity="0.79"></rect><rect width="91" height="1" x="357.5" y="770.5" rx="0.5" transform="rotate(40, 403, 771)" opacity="0.77"></rect><rect width="84" height="1" x="396" y="451.5" rx="0.5" transform="rotate(40, 438, 452)" opacity="0.50"></rect><rect width="138" height="1" x="192" y="109.5" rx="0.5" transform="rotate(40, 261, 110)" opacity="0.79"></rect><rect width="58" height="1" x="698" y="736.5" rx="0.5" transform="rotate(40, 727, 737)" opacity="0.10"></rect><rect width="46" height="1" x="0" y="554.5" rx="0.5" transform="rotate(40, 23, 555)" opacity="0.79"></rect><rect width="56" height="1" x="404" y="95.5" rx="0.5" transform="rotate(40, 432, 96)" opacity="0.16"></rect><rect width="71" height="1" x="705.5" y="235.5" rx="0.5" transform="rotate(40, 741, 236)" opacity="0.31"></rect><rect width="77" height="1" x="538.5" y="456.5" rx="0.5" transform="rotate(40, 577, 457)" opacity="0.86"></rect><rect width="39" height="1" x="141.5" y="348.5" rx="0.5" transform="rotate(40, 161, 349)" opacity="0.44"></rect><rect width="96" height="1" x="16" y="590.5" rx="0.5" transform="rotate(40, 64, 591)" opacity="0.13"></rect><rect width="45" height="1" x="476.5" y="617.5" rx="0.5" transform="rotate(40, 499, 618)" opacity="0.37"></rect><rect width="114" height="1" x="-27" y="75.5" rx="0.5" transform="rotate(40, 30, 76)" opacity="0.84"></rect><rect width="51" height="1" x="404.5" y="722.5" rx="0.5" transform="rotate(40, 430, 723)" opacity="0.78"></rect><rect width="63" height="1" x="350.5" y="438.5" rx="0.5" transform="rotate(40, 382, 439)" opacity="0.96"></rect><rect width="41" height="1" x="536.5" y="105.5" rx="0.5" transform="rotate(40, 557, 106)" opacity="0.54"></rect><rect width="45" height="1" x="754.5" y="174.5" rx="0.5" transform="rotate(40, 777, 175)" opacity="0.62"></rect><rect width="78" height="1" x="451" y="727.5" rx="0.5" transform="rotate(40, 490, 728)" opacity="0.39"></rect><rect width="90" height="1" x="729" y="326.5" rx="0.5" transform="rotate(40, 774, 327)" opacity="0.85"></rect><rect width="36" height="1" x="388" y="654.5" rx="0.5" transform="rotate(40, 406, 655)" opacity="0.11"></rect><rect width="42" height="1" x="63" y="28.5" rx="0.5" transform="rotate(40, 84, 29)" opacity="0.78"></rect><rect width="118" height="1" x="518" y="539.5" rx="0.5" transform="rotate(40, 577, 540)" opacity="0.22"></rect><rect width="62" height="1" x="12" y="435.5" rx="0.5" transform="rotate(40, 43, 436)" opacity="0.75"></rect><rect width="33" height="1" x="429.5" y="567.5" rx="0.5" transform="rotate(40, 446, 568)" opacity="0.70"></rect><rect width="81" height="1" x="387.5" y="613.5" rx="0.5" transform="rotate(40, 428, 614)" opacity="0.17"></rect><rect width="92" height="1" x="323" y="192.5" rx="0.5" transform="rotate(40, 369, 193)" opacity="0.22"></rect><rect width="116" height="1" x="-25" y="227.5" rx="0.5" transform="rotate(40, 33, 228)" opacity="0.57"></rect><rect width="38" height="1" x="93" y="769.5" rx="0.5" transform="rotate(40, 112, 770)" opacity="0.36"></rect><rect width="65" height="1" x="168.5" y="484.5" rx="0.5" transform="rotate(40, 201, 485)" opacity="0.29"></rect><rect width="118" height="1" x="629" y="668.5" rx="0.5" transform="rotate(40, 688, 669)" opacity="0.67"></rect><rect width="28" height="1" x="457" y="676.5" rx="0.5" transform="rotate(40, 471, 677)" opacity="0.79"></rect><rect width="41" height="1" x="162.5" y="28.5" rx="0.5" transform="rotate(40, 183, 29)" opacity="0.65"></rect><rect width="83" height="1" x="294.5" y="764.5" rx="0.5" transform="rotate(40, 336, 765)" opacity="0.99"></rect><rect width="37" height="1" x="621.5" y="580.5" rx="0.5" transform="rotate(40, 640, 581)" opacity="0.72"></rect><rect width="72" height="1" x="457" y="516.5" rx="0.5" transform="rotate(40, 493, 517)" opacity="0.77"></rect><rect width="123" height="1" x="350.5" y="36.5" rx="0.5" transform="rotate(40, 412, 37)" opacity="0.10"></rect><rect width="89" height="1" x="731.5" y="34.5" rx="0.5" transform="rotate(40, 776, 35)" opacity="0.17"></rect><rect width="124" height="1" x="597" y="197.5" rx="0.5" transform="rotate(40, 659, 198)" opacity="0.30"></rect><rect width="95" height="1" x="15.5" y="157.5" rx="0.5" transform="rotate(40, 63, 158)" opacity="0.94"></rect><rect width="119" height="1" x="662.5" y="153.5" rx="0.5" transform="rotate(40, 722, 154)" opacity="0.46"></rect><rect width="70" height="1" x="721" y="776.5" rx="0.5" transform="rotate(40, 756, 777)" opacity="0.78"></rect><rect width="75" height="1" x="80.5" y="99.5" rx="0.5" transform="rotate(40, 118, 100)" opacity="0.36"></rect><rect width="55" height="1" x="460.5" y="777.5" rx="0.5" transform="rotate(40, 488, 778)" opacity="0.20"></rect><rect width="43" height="1" x="762.5" y="706.5" rx="0.5" transform="rotate(40, 784, 707)" opacity="0.76"></rect><rect width="58" height="1" x="747" y="598.5" rx="0.5" transform="rotate(40, 776, 599)" opacity="0.77"></rect><rect width="71" height="1" x="29.5" y="696.5" rx="0.5" transform="rotate(40, 65, 697)" opacity="0.34"></rect><rect width="110" height="1" x="294" y="102.5" rx="0.5" transform="rotate(40, 349, 103)" opacity="0.47"></rect><rect width="90" height="1" x="508" y="30.5" rx="0.5" transform="rotate(40, 553, 31)" opacity="0.56"></rect><rect width="50" height="1" x="65" y="521.5" rx="0.5" transform="rotate(40, 90, 522)" opacity="0.91"></rect><rect width="85" height="1" x="192.5" y="433.5" rx="0.5" transform="rotate(40, 235, 434)" opacity="0.08"></rect><rect width="84" height="1" x="666" y="436.5" rx="0.5" transform="rotate(40, 708, 437)" opacity="0.37"></rect><rect width="32" height="1" x="639" y="120.5" rx="0.5" transform="rotate(40, 655, 121)" opacity="0.79"></rect><rect width="108" height="1" x="103" y="434.5" rx="0.5" transform="rotate(40, 157, 435)" opacity="0.87"></rect><rect width="29" height="1" x="15.5" y="492.5" rx="0.5" transform="rotate(40, 30, 493)" opacity="0.98"></rect><rect width="94" height="1" x="670" y="293.5" rx="0.5" transform="rotate(40, 717, 294)" opacity="0.35"></rect><rect width="123" height="1" x="127.5" y="92.5" rx="0.5" transform="rotate(40, 189, 93)" opacity="0.87"></rect><rect width="82" height="1" x="405" y="311.5" rx="0.5" transform="rotate(40, 446, 312)" opacity="0.94"></rect><rect width="163" height="1" x="90.5" y="257.5" rx="0.5" transform="rotate(40, 172, 258)" opacity="0.44"></rect><rect width="126" height="1" x="640" y="595.5" rx="0.5" transform="rotate(40, 703, 596)" opacity="0.33"></rect><rect width="115" height="1" x="105.5" y="723.5" rx="0.5" transform="rotate(40, 163, 724)" opacity="0.49"></rect><rect width="71" height="1" x="389.5" y="250.5" rx="0.5" transform="rotate(40, 425, 251)" opacity="0.64"></rect><rect width="63" height="1" x="563.5" y="270.5" rx="0.5" transform="rotate(40, 595, 271)" opacity="0.55"></rect><rect width="39" height="1" x="706.5" y="374.5" rx="0.5" transform="rotate(40, 726, 375)" opacity="0.61"></rect><rect width="78" height="1" x="602" y="444.5" rx="0.5" transform="rotate(40, 641, 445)" opacity="0.41"></rect><rect width="46" height="1" x="406" y="506.5" rx="0.5" transform="rotate(40, 429, 507)" opacity="0.99"></rect><rect width="63" height="1" x="194.5" y="367.5" rx="0.5" transform="rotate(40, 226, 368)" opacity="0.88"></rect><rect width="63" height="1" x="708.5" y="690.5" rx="0.5" transform="rotate(40, 740, 691)" opacity="0.12"></rect><rect width="32" height="1" x="7" y="338.5" rx="0.5" transform="rotate(40, 23, 339)" opacity="0.52"></rect><rect width="61" height="1" x="600.5" y="506.5" rx="0.5" transform="rotate(40, 631, 507)" opacity="0.61"></rect><rect width="76" height="1" x="304" y="459.5" rx="0.5" transform="rotate(40, 342, 460)" opacity="0.30"></rect><rect width="51" height="1" x="503.5" y="478.5" rx="0.5" transform="rotate(40, 529, 479)" opacity="0.68"></rect><rect width="106" height="1" x="93" y="511.5" rx="0.5" transform="rotate(40, 146, 512)" opacity="0.38"></rect><rect width="75" height="1" x="549.5" y="176.5" rx="0.5" transform="rotate(40, 587, 177)" opacity="0.70"></rect><rect width="31" height="1" x="611.5" y="648.5" rx="0.5" transform="rotate(40, 627, 649)" opacity="0.75"></rect><rect width="33" height="1" x="647.5" y="340.5" rx="0.5" transform="rotate(40, 664, 341)" opacity="0.39"></rect><rect width="67" height="1" x="1.5" y="762.5" rx="0.5" transform="rotate(40, 35, 763)" opacity="0.74"></rect><rect width="77" height="1" x="59.5" y="306.5" rx="0.5" transform="rotate(40, 98, 307)" opacity="0.17"></rect><rect width="52" height="1" x="745" y="436.5" rx="0.5" transform="rotate(40, 771, 437)" opacity="0.87"></rect><rect width="42" height="1" x="603" y="33.5" rx="0.5" transform="rotate(40, 624, 34)" opacity="0.22"></rect><rect width="58" height="1" x="-11" y="691.5" rx="0.5" transform="rotate(40, 18, 692)" opacity="0.64"></rect><rect width="82" height="1" x="0" y="635.5" rx="0.5" transform="rotate(40, 41, 636)" opacity="0.76"></rect><rect width="46" height="1" x="150" y="650.5" rx="0.5" transform="rotate(40, 173, 651)" opacity="0.85"></rect><rect width="55" height="1" x="178.5" y="774.5" rx="0.5" transform="rotate(40, 206, 775)" opacity="0.30"></rect><rect width="64" height="1" x="443" y="23.5" rx="0.5" transform="rotate(40, 475, 24)" opacity="0.79"></rect><rect width="100" height="1" x="603" y="280.5" rx="0.5" transform="rotate(40, 653, 281)" opacity="0.20"></rect><rect width="100" height="1" x="278" y="633.5" rx="0.5" transform="rotate(40, 328, 634)" opacity="0.09"></rect><rect width="53" height="1" x="534.5" y="753.5" rx="0.5" transform="rotate(40, 561, 754)" opacity="0.99"></rect><rect width="105" height="1" x="83.5" y="595.5" rx="0.5" transform="rotate(40, 136, 596)" opacity="0.72"></rect><rect width="95" height="1" x="327.5" y="555.5" rx="0.5" transform="rotate(40, 375, 556)" opacity="0.21"></rect><rect width="108" height="1" x="700" y="93.5" rx="0.5" transform="rotate(40, 754, 94)" opacity="0.88"></rect><rect width="63" height="1" x="543.5" y="675.5" rx="0.5" transform="rotate(40, 575, 676)" opacity="0.67"></rect><rect width="81" height="1" x="531.5" y="387.5" rx="0.5" transform="rotate(40, 572, 388)" opacity="0.11"></rect><rect width="63" height="1" x="408.5" y="190.5" rx="0.5" transform="rotate(40, 440, 191)" opacity="0.43"></rect><rect width="116" height="1" x="510" y="606.5" rx="0.5" transform="rotate(40, 568, 607)" opacity="0.45"></rect><rect width="70" height="1" x="263" y="403.5" rx="0.5" transform="rotate(40, 298, 404)" opacity="0.85"></rect><rect width="64" height="1" x="326" y="363.5" rx="0.5" transform="rotate(40, 358, 364)" opacity="0.45"></rect><rect width="45" height="1" x="301.5" y="521.5" rx="0.5" transform="rotate(40, 324, 522)" opacity="0.86"></rect><rect width="68" height="1" x="599" y="712.5" rx="0.5" transform="rotate(40, 633, 713)" opacity="0.83"></rect></g></svg>