<svg xmlns="http://www.w3.org/2000/svg" version="1.1" xmlns:xlink="http://www.w3.org/1999/xlink" xmlns:svgjs="http://svgjs.dev/svgjs" viewBox="0 0 1422 800"><defs><filter id="uuunion-blur" x="-100%" y="-100%" width="400%" height="400%" color-interpolation-filters="sRGB">
        <feGaussianBlur in="SourceGraphic" stdDeviation="7.5 12.5" result="blur"></feGaussianBlur>
        <feDropShadow stdDeviation="65.23076923076923" in="blur" dx="53" dy="53" flood-color="hsl(270, 73%, 53%)" flood-opacity="0.06" x="0%" y="0%" width="100%" height="100%"></feDropShadow>
      </filter><filter id="uuunion-blur2" x="-100%" y="-100%" width="400%" height="400%" color-interpolation-filters="sRGB">
        <feGaussianBlur in="SourceGraphic" stdDeviation="7.5 12.5" result="blur"></feGaussianBlur>
        <feDropShadow stdDeviation="65.23076923076923" in="blur" dx="-53" dy="-53" flood-color="hsl(270, 73%, 53%)" flood-opacity="0.06" x="0%" y="0%" width="100%" height="100%"></feDropShadow>
      </filter><linearGradient gradientTransform="rotate(0, 0.5, 0.5)" x1="50%" y1="0%" x2="50%" y2="100%" id="uuunion-grad"><stop stop-color="hsl(162, 100%, 58%)" offset="10%"></stop><stop stop-color="hsl(270, 73%, 53%)" offset="90%"></stop></linearGradient><linearGradient gradientTransform="rotate(114, 0.5, 0.5)" x1="50%" y1="0%" x2="50%" y2="100%" id="uuunion-grad2"><stop stop-color="hsl(162, 100%, 58%)" offset="25%"></stop><stop stop-color="hsl(270, 73%, 53%)" offset="100%"></stop></linearGradient><linearGradient gradientTransform="rotate(310, 0.5, 0.5)" x1="50%" y1="0%" x2="50%" y2="100%" id="uuunion-grad3"><stop stop-color="hsl(162, 100%, 58%)" offset="0%"></stop><stop stop-color="hsl(270, 73%, 53%)" offset="75%"></stop></linearGradient></defs><path d="M-110.35 -85.06Q-97.98 -84.69 -85.62 -83.95 -73.25 -82.89 -60.88 -81.6 -48.52 -80.18 -36.15 -78.75 -23.79 -77.41 -11.42 -76.28 0.93 -75.45 13.3 -74.99 25.66 -74.92 38.03 -75.26 50.39 -75.97 62.76 -77.01 75.12 -78.29 87.49 -79.7 99.85 -81.14 112.22 -82.48 124.58 -83.63 136.95 -84.49 149.31 -84.98 161.68 -85.08 174.04 -84.77 186.41 -84.08 198.77 -83.07 211.14 -81.81 223.5 -80.4 235.87 -78.96 248.23 -77.6 260.6 -76.44 272.96 -75.56 285.33 -75.03 297.69 -74.9 310.06 -75.18 322.42 -75.84 334.79 -76.84 347.15 -78.08 359.52 -79.48 371.88 -80.92 384.25 -82.29 396.61 -83.47 408.98 -84.38 421.34 -84.93 433.71 -85.09 446.08 -84.85 458.44 -84.21 470.81 -83.24 483.17 -82.01 495.54 -80.62 507.9 -79.18 520.27 -77.8 532.63 -76.6 545 -75.67 557.36 -75.09 569.73 -74.9 582.09 -75.11 594.46 -75.72 606.82 -76.67 619.19 -77.88 631.55 -79.26 643.92 -80.7 656.28 -82.09 668.65 -83.31 681.01 -84.26 693.38 -84.87 705.74 -85.09 718.11 -84.91 730.47 -84.33 742.84 -83.41 755.2 -82.21 767.57 -80.84 779.93 -79.39 792.3 -78 804.66 -76.77 817.03 -75.79 829.4 -75.15 841.76 -74.9 854.13 -75.05 866.49 -75.6 878.86 -76.5 891.22 -77.68 903.59 -79.05 915.95 -80.49 928.32 -81.89 940.68 -83.14 953.05 -84.14 965.41 -84.8 977.78 -85.09 990.14 -84.96 1002.51 -84.44 1014.87 -83.57 1027.24 -82.41 1039.6 -81.05 1051.97 -79.61 1064.33 -78.2 1076.7 -76.94 1089.06 -75.92 1101.43 -75.22 1113.79 -74.91 1126.16 -75 1138.52 -75.49 1150.89 -76.35 1163.26 -77.49 1175.62 -78.83 1187.99 -80.27 1200.35 -81.68 1212.72 -82.96 1225.08 -84 1237.45 -84.73 1249.81 -85.07 1262.18 -85.01 1274.54 -84.55 1286.91 -83.72 1299.27 -82.6 1311.64 -81.26 1324 -79.83 1336.37 -78.41 1348.73 -77.12 1361.1 -76.05 1373.46 -75.31 1385.83 -74.93 1398.19 -74.96 1410.56 -75.4 1422.93 -76.2 1435.29 -77.3 1447.66 -78.62 1460.02 -80.05 1472.39 -81.47 1477.02 -66.74 1488.87 -52.01 1506.93 -37.27 1529.73 -22.54 1555.38 -7.81 1581.75 6.92 1606.68 21.65 1628.09 36.39 1644.22 51.12 1653.74 65.85 1655.87 80.59 1650.41 95.32 1637.83 110.05 1619.17 124.79 1595.96 139.52 1570.13 154.25 1543.81 168.99 1519.17 183.72 1498.26 198.46 1482.79 213.19 1474.05 227.92 1472.75 242.66 1479.02 257.39 1492.32 272.12 1511.56 286.86 1535.16 301.59 1561.15 316.33 1587.39 331.06 1611.72 345.79 1632.12 360.53 1646.9 375.26 1654.85 389.99 1655.31 404.73 1648.25 419.46 1634.23 434.19 1614.43 448.93 1590.48 463.66 1564.35 478.4 1538.21 493.13 1514.22 507.86 1494.36 522.6 1480.27 537.33 1473.12 552.06 1473.49 566.8 1481.35 581.53 1496.06 596.26 1516.41 611 1540.7 625.73 1566.93 640.47 1592.94 655.2 1616.57 669.93 1635.87 684.67 1649.25 699.4 1655.6 714.13 1654.4 728.87 1645.75 743.6 1630.35 758.33 1609.49 773.07 1584.89 787.8 1558.57 802.54 1532.72 817.27 1509.47 832 1490.74 846.74 1478.09 861.47 1465.66 879.33 1453.24 897.23 1440.81 913.76 1428.39 927.6 1415.96 937.62 1403.54 943.05 1391.11 943.43 1378.69 938.75 1366.26 929.36 1353.84 916.04 1341.41 899.83 1328.98 882.04 1316.56 864.08 1304.13 847.4 1291.71 833.32 1279.28 822.97 1266.86 817.18 1254.43 816.41 1242.01 820.72 1229.58 829.76 1217.16 842.83 1204.73 858.86 1192.31 876.58 1179.88 894.57 1167.46 911.4 1155.03 925.72 1142.61 936.38 1130.18 942.54 1117.76 943.7 1105.33 939.77 1092.91 931.06 1080.48 918.27 1068.06 902.43 1055.63 884.79 1043.21 866.76 1030.78 849.8 1018.35 835.24 1005.93 824.27 993.5 817.74 981.08 816.2 968.65 819.75 956.23 828.11 943.8 840.62 931.38 856.28 918.95 873.83 906.53 891.88 894.1 908.98 881.68 923.76 869.25 935.04 856.83 941.92 844.4 943.86 831.98 940.69 819.55 932.67 807.13 920.44 794.7 904.98 782.28 887.52 769.85 869.46 757.43 852.25 745 837.25 732.58 825.66 720.15 818.42 707.73 816.1 695.3 818.89 682.88 826.55 670.45 838.49 658.02 853.75 645.6 871.1 633.17 889.17 620.75 906.5 608.32 921.71 595.9 933.59 583.47 941.19 571.05 943.89 558.62 941.49 546.2 934.18 533.77 922.53 521.35 907.49 508.92 890.25 496.5 872.19 484.07 854.75 471.65 839.33 459.22 827.16 446.8 819.21 434.37 816.12 421.95 818.14 409.52 825.1 397.1 836.44 384.67 851.26 372.25 868.39 359.82 886.43 347.4 903.97 334.97 919.59 322.55 932.04 310.12 940.34 297.7 943.81 285.27 942.18 272.85 935.59 260.42 924.55 248 909.95 235.57 892.95 223.15 874.93 210.72 857.3 198.29 841.49 185.87 828.76 173.44 820.12 161.02 816.27 148.59 817.5 136.17 823.74 123.74 834.47 111.32 848.83 98.89 865.69 86.47 883.69 74.04 901.4 61.62 917.39 49.19 930.4 36.77 939.38 24.34 943.61 11.92 942.76 -0.5 936.89 -12.92 926.48 -25.35 912.35 -37.77 895.64 -50.2 877.67 -62.62 859.9 -75.05 843.72 -87.47 830.45 -99.9 821.14 -112.32 816.53 -116.71 802.44 -123.21 788.35 -131.27 774.26 -140.23 760.18 -149.36 746.09 -157.89 732 -165.13 717.91 -170.47 703.83 -173.47 689.74 -173.89 675.65 -171.68 661.56 -167.04 647.48 -160.35 633.39 -152.15 619.3 -143.13 605.21 -134.04 591.13 -125.61 577.04 -118.56 562.95 -113.45 548.86 -110.73 534.78 -110.6 520.69 -113.08 506.6 -117.97 492.52 -124.85 478.43 -133.17 464.34 -142.24 450.25 -151.3 436.17 -159.61 422.08 -166.47 407.99 -171.33 393.9 -173.79 379.82 -173.63 365.73 -170.87 351.64 -165.74 337.55 -158.67 323.47 -150.23 309.38 -141.13 295.29 -132.11 281.2 -123.93 267.12 -117.26 253.03 -112.65 238.94 -110.47 224.85 -110.92 210.77 -113.95 196.68 -119.32 182.59 -126.57 168.5 -135.12 154.42 -144.24 140.33 -153.2 126.24 -161.25 112.15 -167.72 98.07 -172.08 83.98 -173.98 69.89 -173.24 55.8 -169.94 41.72 -164.34 27.63 -156.92 13.54 -148.27 -0.54 -139.13 -14.62 -130.23 -28.71 -122.33 -42.8 -116.06 -56.89 -111.95 -70.97 -110.35 -85.06" fill="url(#uuunion-grad)"></path><path d="M-110.35 -85.06Q-111.96 -70.97 -116.07 -56.89 -122.34 -42.8 -130.24 -28.71 -139.14 -14.62 -148.28 -0.54 -156.93 13.54 -164.35 27.63 -169.95 41.72 -173.25 55.8 -173.99 69.89 -172.1 83.98 -167.73 98.07 -161.26 112.15 -153.21 126.24 -144.25 140.33 -135.13 154.42 -126.58 168.5 -119.33 182.59 -113.96 196.68 -110.93 210.77 -110.48 224.85 -112.66 238.94 -117.27 253.03 -123.94 267.12 -132.12 281.2 -141.14 295.29 -150.24 309.38 -158.68 323.46 -165.75 337.55 -167.5 359.36 -154.59 369.62 -145.07 373.24 -135.54 377.81 -126.02 383.18 -116.5 389.14 -106.97 395.49 -97.45 402 -87.93 408.43 -78.4 414.57 -68.88 420.19 -59.36 425.09 -49.83 429.09 -40.31 432.06 -22.31 434.32 -19.13 434.46 -7.01 429.86 5.16 423.45 17.38 415.43 29.62 406.1 41.9 395.82 54.18 384.98 66.47 374.03 78.75 363.39 91.02 353.47 103.26 344.66 115.48 337.24 127.65 331.43 139.77 327.37 151.84 325.09 163.85 324.52 175.79 325.5 187.66 327.78 199.45 331.04 211.15 334.93 222.77 339.05 234.29 342.99 245.73 346.37 257.06 348.83 268.31 350.08 279.45 349.88 290.5 348.11 301.45 344.7 312.31 339.68 323.07 333.19 333.75 325.43 344.34 316.68 354.85 307.25 365.29 297.5 375.65 287.81 385.95 278.54 396.19 270.01 406.38 262.53 416.52 256.31 426.63 251.51 436.71 248.2 446.76 246.37 456.81 245.93 466.85 246.71 476.91 248.48 486.97 250.94 497.06 253.79 507.19 256.69 517.36 259.3 527.58 261.31 537.87 262.45 548.22 262.49 558.66 261.28 569.18 258.72 579.79 254.82 590.51 249.62 601.33 243.27 612.28 235.97 623.34 227.96 634.53 219.51 645.85 210.94 657.3 202.55 668.9 194.62 680.63 187.41 692.51 181.13 704.53 175.95 716.7 171.96 729.01 169.18 741.46 167.58 754.05 167.05 766.78 167.43 779.64 168.51 792.64 170.04 805.75 171.75 818.98 173.39 832.33 174.68 845.77 175.39 859.31 175.31 872.94 174.3 886.64 172.25 900.4 169.13 914.22 164.95 928.08 159.8 941.98 153.8 955.89 147.14 969.8 140.01 983.71 132.66 997.6 125.32 1011.45 118.23 1025.25 111.59 1039 105.59 1052.66 100.38 1066.24 96.06 1079.71 92.67 1093.07 90.21 1106.29 88.61 1119.37 87.78 1132.3 87.56 1145.06 87.79 1157.64 88.27 1170.02 88.79 1182.21 89.15 1194.19 89.15 1205.94 88.65 1217.47 87.49 1228.77 85.6 1239.82 82.92 1250.62 79.45 1261.18 75.22 1271.47 70.33 1281.51 64.88 1291.29 59.01 1300.81 52.91 1310.08 46.73 1319.08 40.64 1327.83 34.82 1336.34 29.39 1344.6 24.49 1352.62 20.18 1367.88 13.83 1382.5 9.33 1396.19 7.13 1409.39 5.6 1415.75 4.89 1422 3.98 1395.07 -13.93 1371.16 -31.86 1352.95 -49.79 1342.5 -67.72 1340.96 -85.64 1348.51 -103.57 1364.31 -121.5 1386.58 -139.43 1374.65 -139.78 1362.73 -140.16 1350.8 -140.52 1338.88 -140.84 1326.95 -141.11 1315.03 -141.3 1303.1 -141.4 1291.18 -141.41 1279.25 -141.32 1267.33 -141.14 1255.4 -140.88 1243.48 -140.56 1231.55 -140.2 1219.63 -139.83 1207.71 -139.47 1195.78 -139.14 1183.86 -138.88 1171.93 -138.69 1160.01 -138.58 1148.08 -138.58 1136.16 -138.67 1124.23 -138.85 1112.31 -139.11 1100.38 -139.43 1088.46 -139.79 1076.53 -140.16 1064.61 -140.52 1052.68 -140.85 1040.76 -141.11 1028.83 -141.3 1016.91 -141.41 1004.98 -141.41 993.06 -141.32 981.13 -141.14 969.21 -140.88 957.28 -140.56 945.36 -140.2 933.43 -139.82 921.51 -139.46 909.59 -139.14 897.66 -138.87 885.74 -138.68 873.81 -138.58 861.89 -138.58 849.96 -138.67 838.04 -138.86 826.11 -139.12 814.19 -139.44 802.26 -139.8 790.34 -140.17 778.41 -140.53 766.49 -140.85 754.56 -141.12 742.64 -141.31 730.71 -141.41 718.79 -141.41 706.86 -141.32 694.94 -141.13 683.01 -140.87 671.09 -140.55 659.16 -140.19 647.24 -139.82 635.31 -139.46 623.39 -139.14 611.47 -138.87 599.54 -138.68 587.62 -138.58 575.69 -138.58 563.77 -138.68 551.84 -138.86 539.92 -139.12 527.99 -139.44 516.07 -139.8 504.14 -140.17 492.22 -140.53 480.29 -140.86 468.37 -141.12 456.44 -141.31 444.52 -141.41 432.59 -141.41 420.67 -141.31 408.74 -141.13 396.82 -140.87 384.89 -140.54 372.97 -140.19 361.04 -139.81 349.12 -139.45 337.19 -139.13 325.27 -138.87 313.35 -138.68 301.42 -138.58 289.5 -138.58 277.57 -138.68 265.65 -138.86 253.72 -139.13 241.8 -139.45 229.87 -139.81 217.95 -140.18 206.02 -140.54 194.1 -140.86 182.17 -141.13 170.25 -141.31 158.32 -141.41 146.4 -141.41 134.47 -141.31 122.55 -141.13 110.62 -140.86 98.7 -140.54 86.77 -140.18 74.85 -139.81 62.92 -139.45 51 -139.13 39.07 -138.86 27.15 -138.68 15.23 -138.58 3.3 -138.58 -8.61 -138.68 -20.54 -138.87 -32.46 -139.13 -44.39 -139.45 -56.31 -139.81 -68.24 -140.19 -80.16 -140.54 -92.09 -140.87 -104.01 -141.13 -115.94 -141.31 -128.52 -134.37 -120.48 -113.26 -114.12 -99.17 -110.35 -85.06" fill="url(#uuunion-grad2)" filter="url(#uuunion-blur)"></path><path d="M1411.48 331.8Q1420.28 336.69 1429.09 340.99 1437.89 344.54 1446.69 347.21 1455.5 348.91 1464.3 349.58 1473.11 349.2 1481.91 347.78 1490.72 345.36 1499.52 342.05 1508.33 337.94 1517.13 333.2 1525.93 327.98 1534.74 322.48 1543.54 316.89 1552.35 311.41 1583.09 328.6 1611.72 345.79 1635.01 362.98 1650.36 380.17 1656.04 397.36 1651.42 414.55 1637.01 431.74 1614.43 448.93 1586.22 466.12 1555.53 483.31 1525.82 500.5 1500.41 517.68 1482.16 534.87 1473.12 552.06 1474.29 569.25 1485.55 586.44 1505.63 603.63 1532.28 620.82 1562.51 638.01 1592.94 655.2 1620.13 672.39 1641.06 689.58 1653.35 706.77 1655.65 723.96 1647.68 741.15 1630.35 758.33 1605.6 775.52 1576.2 792.71 1545.45 809.9 1516.81 827.09 1493.48 844.28 1478.09 861.47 1466.69 877.83 1455.29 894.33 1443.9 909.86 1432.5 923.39 1421.1 934 1409.7 940.97 1398.31 943.83 1386.91 942.4 1375.51 936.77 1364.12 927.32 1352.72 914.68 1341.32 899.71 1329.93 883.41 1318.53 866.88 1307.13 851.23 1295.73 837.52 1284.34 826.67 1272.94 819.41 1261.54 816.22 1250.15 817.33 1238.75 822.66 1227.35 831.84 1215.95 844.27 1204.56 859.1 1193.16 875.33 1181.76 891.89 1170.37 907.64 1158.97 921.53 1147.57 932.62 1136.18 940.17 1124.78 943.68 1113.38 942.89 1101.98 937.87 1090.59 928.96 1079.19 916.75 1067.79 902.07 1056.4 885.9 1045 869.33 1033.6 853.48 1022.2 839.42 1010.81 828.09 999.41 820.25 988.01 816.43 976.62 816.89 965.22 821.6 953.82 830.24 942.42 842.23 931.03 856.76 919.63 872.85 908.23 889.43 896.84 905.37 885.44 919.6 874.04 931.17 862.65 939.29 851.25 943.42 839.85 943.28 828.45 938.89 817.06 930.53 805.66 918.76 794.26 904.39 782.87 888.38 771.47 871.8 760.07 855.77 748.67 841.38 737.28 829.58 725.88 821.18 714.48 816.73 703.09 816.55 691.69 820.63 680.29 828.71 668.9 840.24 657.5 854.45 646.1 870.38 634.7 886.95 623.31 903.06 611.91 917.61 600.51 929.63 589.12 938.32 577.72 943.07 566.32 943.58 554.92 939.81 543.53 932.01 532.13 920.72 520.73 906.68 509.34 890.84 497.94 874.28 486.54 858.1 475.14 843.39 463.75 831.15 452.35 822.2 440.95 817.13 429.56 816.3 418.16 819.75 406.76 827.26 395.37 838.32 383.97 852.18 372.57 867.92 361.17 884.47 349.78 900.72 338.38 915.57 326.98 928.03 315.59 937.25 304.19 942.62 292.79 943.78 281.39 940.64 270 933.42 258.6 922.61 247.2 908.92 235.81 893.29 224.41 876.77 213.01 860.46 201.61 845.46 190.22 832.79 178.82 823.3 167.42 817.63 156.03 816.15 144.63 818.97 133.23 825.89 121.84 836.46 110.44 849.96 99.04 865.48 87.64 881.98 76.25 898.34 64.85 913.47 53.45 926.35 42.06 936.1 24.05 937.67 14.96 922.66 11.87 912.04 8.32 901.43 4.42 890.82 0.32 880.21 -5.59 864.29 -6.84 859 3.64 850.3 14.45 837.68 25.6 821.64 37.09 802.9 48.91 782.37 61.07 761.08 73.53 740.09 86.28 720.43 99.29 703.02 112.52 688.61 125.95 677.73 139.52 670.66 153.21 667.39 166.96 667.68 180.74 671.01 194.5 676.66 208.2 683.77 221.81 691.39 235.29 698.53 248.62 704.27 261.77 707.79 274.72 708.42 287.46 705.75 299.98 699.56 312.29 689.91 324.39 677.08 336.29 661.58 348 644.12 359.57 625.49 371 606.58 382.34 588.3 393.61 571.46 404.87 556.78 416.15 544.83 427.49 535.95 438.94 530.28 450.53 527.73 462.31 527.97 474.31 530.52 486.56 534.72 499.1 539.8 511.94 544.95 525.1 549.39 538.59 552.36 552.42 553.26 566.58 551.62 581.06 547.16 595.84 539.81 610.89 529.7 626.18 517.16 641.67 502.66 657.31 486.82 673.06 470.35 688.85 453.96 704.64 438.37 720.34 424.21 735.91 412.02 751.28 402.16 766.39 394.84 781.17 390.08 795.56 387.73 809.53 387.46 823.01 388.81 835.97 391.21 846.23 397 856.46 402.83 866.67 408.41 876.84 413.44 886.99 417.65 897.1 420.83 907.18 422.78 917.22 423.37 927.24 422.54 937.21 420.27 947.15 416.61 957.05 411.67 966.92 405.61 976.74 398.64 986.53 391.02 996.28 383 1005.98 374.9 1015.64 366.98 1025.26 359.55 1034.84 352.85 1044.37 347.12 1053.86 342.54 1063.3 339.25 1072.7 337.33 1082.06 336.81 1091.36 337.63 1100.62 339.72 1109.84 342.92 1119.01 347.04 1128.13 351.84 1137.2 357.07 1146.22 362.44 1155.2 367.68 1164.13 372.5 1173.02 376.66 1181.85 379.93 1199.36 382.42 1216.72 381.03 1225.32 378.02 1233.87 373.78 1242.38 368.43 1250.84 362.16 1259.26 355.18 1267.63 347.74 1275.96 340.12 1284.24 332.57 1292.48 325.37 1300.68 318.77 1308.84 312.99 1316.95 308.22 1333.04 302.89 1349.02 301.38 1364.82 305.77 1380.51 312.88 1388.3 317.52 1396.05 322.39 1403.78 327.24 1411.48 331.8" fill="url(#uuunion-grad3)" filter="url(#uuunion-blur2)"></path></svg>